HIERARCHY
ROOT Hips
{
	OFFSET 0.000000 121.760803 0.000000
	CHANNELS 6 Xposition Yposition Zposition Xrotation Yrotation Zrotation 
	JOINT Spine
	{
		OFFSET 0.072000 7.257294 -0.789700
		CHANNELS 3 Xrotation Yrotation Zrotation
		JOINT Spine1
		{
			OFFSET 0.000000 12.508769 -0.658067
			CHANNELS 3 Xrotation Yrotation Zrotation
			JOINT Spine1_split
			{
				OFFSET 0.000000 12.508769 -0.658067
				CHANNELS 3 Xrotation Yrotation Zrotation
				JOINT Spine2
				{
					OFFSET 0.000000 12.508769 -0.658067
					CHANNELS 3 Xrotation Yrotation Zrotation
					JOINT Neck
					{
						OFFSET 0.000000 14.033295 7.520400
						CHANNELS 3 Xrotation Yrotation Zrotation
						JOINT Head
						{
							OFFSET 0.000000 8.198502 5.703100
							CHANNELS 3 Xrotation Yrotation Zrotation
							JOINT HeadTop_End
							{
								OFFSET 0.000000 17.760803 13.332701
								CHANNELS 3 Xrotation Yrotation Zrotation
								End Site
								{
									OFFSET 0.000000 0.000000 0.000000
								}
							}
						}
					}
					JOINT LeftShoulder
					{
						OFFSET 6.292450 5.785301 -0.669000
						CHANNELS 3 Xrotation Yrotation Zrotation
						JOINT LeftShoulder_split
						{
							OFFSET 6.292450 5.785301 -0.669000
							CHANNELS 3 Xrotation Yrotation Zrotation
							JOINT LeftArm
							{
								OFFSET 13.907140 -6.093903 1.965100
								CHANNELS 3 Xrotation Yrotation Zrotation
								JOINT LeftForeArm
								{
									OFFSET 34.140198 0.000000 0.000000
									CHANNELS 3 Xrotation Yrotation Zrotation
									JOINT LeftHand
									{
										OFFSET 40.960209 0.000000 0.000000
										CHANNELS 3 Xrotation Yrotation Zrotation
										JOINT LeftHandThumb1
										{
											OFFSET 10.006996 -7.170425 9.573125
											CHANNELS 3 Xrotation Yrotation Zrotation
											JOINT LeftHandThumb2
											{
												OFFSET 1.835007 -1.059448 1.059443
												CHANNELS 3 Xrotation Yrotation Zrotation
												JOINT LeftHandThumb3
												{
													OFFSET 2.112267 -1.219513 1.219518
													CHANNELS 3 Xrotation Yrotation Zrotation
													JOINT LeftHandThumb4
													{
														OFFSET 4.843811 -2.796570 2.796576
														CHANNELS 3 Xrotation Yrotation Zrotation
														End Site
														{
															OFFSET 0.000000 0.000000 0.000000
														}
													}
												}
											}
										}
										JOINT LeftHandIndex1
										{
											OFFSET 18.389847 -0.922348 4.596882
											CHANNELS 3 Xrotation Yrotation Zrotation
											JOINT LeftHandIndex2
											{
												OFFSET 4.711273 0.000000 0.000000
												CHANNELS 3 Xrotation Yrotation Zrotation
												JOINT LeftHandIndex3
												{
													OFFSET 2.886131 0.000000 0.000000
													CHANNELS 3 Xrotation Yrotation Zrotation
													JOINT LeftHandIndex4
													{
														OFFSET 6.145912 0.000000 0.000000
														CHANNELS 3 Xrotation Yrotation Zrotation
														End Site
														{
															OFFSET 0.000000 0.000000 0.000000
														}
													}
												}
											}
										}
										JOINT LeftHandMiddle1
										{
											OFFSET 18.013008 0.000000 0.000000
											CHANNELS 3 Xrotation Yrotation Zrotation
											JOINT LeftHandMiddle2
											{
												OFFSET 4.946693 0.000000 0.000000
												CHANNELS 3 Xrotation Yrotation Zrotation
												JOINT LeftHandMiddle3
												{
													OFFSET 3.342232 0.000000 0.000000
													CHANNELS 3 Xrotation Yrotation Zrotation
													JOINT LeftHandMiddle4
													{
														OFFSET 4.461754 0.000000 0.000000
														CHANNELS 3 Xrotation Yrotation Zrotation
														End Site
														{
															OFFSET 0.000000 0.000000 0.000000
														}
													}
												}
											}
										}
										JOINT LeftHandRing1
										{
											OFFSET 15.849892 -0.102921 -4.126150
											CHANNELS 3 Xrotation Yrotation Zrotation
											JOINT LeftHandRing2
											{
												OFFSET 3.527054 0.000000 0.000000
												CHANNELS 3 Xrotation Yrotation Zrotation
												JOINT LeftHandRing3
												{
													OFFSET 2.961098 0.000000 0.000000
													CHANNELS 3 Xrotation Yrotation Zrotation
													JOINT LeftHandRing4
													{
														OFFSET 4.927200 0.000000 0.000000
														CHANNELS 3 Xrotation Yrotation Zrotation
														End Site
														{
															OFFSET 0.000000 0.000000 0.000000
														}
													}
												}
											}
										}
										JOINT LeftHandPinky1
										{
											OFFSET 12.791824 -0.832031 -6.799156
											CHANNELS 3 Xrotation Yrotation Zrotation
											JOINT LeftHandPinky2
											{
												OFFSET 3.327133 0.000000 0.000000
												CHANNELS 3 Xrotation Yrotation Zrotation
												JOINT LeftHandPinky3
												{
													OFFSET 3.014900 0.000000 0.000000
													CHANNELS 3 Xrotation Yrotation Zrotation
													JOINT LeftHandPinky4
													{
														OFFSET 5.847786 0.000000 0.000000
														CHANNELS 3 Xrotation Yrotation Zrotation
														End Site
														{
															OFFSET 0.000000 0.000000 0.000000
														}
													}
												}
											}
										}
									}
								}
							}
						}
					}
					JOINT RightShoulder
					{
						OFFSET -6.292450 5.785301 -0.669000
						CHANNELS 3 Xrotation Yrotation Zrotation
						JOINT RightShoulder_split
						{
							OFFSET -6.292450 5.785301 -0.669000
							CHANNELS 3 Xrotation Yrotation Zrotation
							JOINT RightArm
							{
								OFFSET -13.907140 -6.093903 1.965100
								CHANNELS 3 Xrotation Yrotation Zrotation
								JOINT RightForeArm
								{
									OFFSET -34.140198 0.000000 0.000000
									CHANNELS 3 Xrotation Yrotation Zrotation
									JOINT RightHand
									{
										OFFSET -40.960209 0.000000 0.000000
										CHANNELS 3 Xrotation Yrotation Zrotation
										JOINT RightHandThumb1
										{
											OFFSET -10.007050 -7.170456 9.573117
											CHANNELS 3 Xrotation Yrotation Zrotation
											JOINT RightHandThumb2
											{
												OFFSET -1.835007 -1.059448 1.059443
												CHANNELS 3 Xrotation Yrotation Zrotation
												JOINT RightHandThumb3
												{
													OFFSET -2.112267 -1.219513 1.219518
													CHANNELS 3 Xrotation Yrotation Zrotation
													JOINT RightHandThumb4
													{
														OFFSET -4.843834 -2.796585 2.796590
														CHANNELS 3 Xrotation Yrotation Zrotation
														End Site
														{
															OFFSET 0.000000 0.000000 0.000000
														}
													}
												}
											}
										}
										JOINT RightHandIndex1
										{
											OFFSET -18.389870 -0.922424 4.596786
											CHANNELS 3 Xrotation Yrotation Zrotation
											JOINT RightHandIndex2
											{
												OFFSET -4.711273 0.000000 0.000000
												CHANNELS 3 Xrotation Yrotation Zrotation
												JOINT RightHandIndex3
												{
													OFFSET -2.886131 0.000000 0.000000
													CHANNELS 3 Xrotation Yrotation Zrotation
													JOINT RightHandIndex4
													{
														OFFSET -6.145920 0.000000 0.000000
														CHANNELS 3 Xrotation Yrotation Zrotation
														End Site
														{
															OFFSET 0.000000 0.000000 0.000000
														}
													}
												}
											}
										}
										JOINT RightHandMiddle1
										{
											OFFSET -18.013008 0.000000 0.000000
											CHANNELS 3 Xrotation Yrotation Zrotation
											JOINT RightHandMiddle2
											{
												OFFSET -4.946693 0.000000 0.000000
												CHANNELS 3 Xrotation Yrotation Zrotation
												JOINT RightHandMiddle3
												{
													OFFSET -3.342232 0.000000 0.000000
													CHANNELS 3 Xrotation Yrotation Zrotation
													JOINT RightHandMiddle4
													{
														OFFSET -4.461754 0.000000 0.000000
														CHANNELS 3 Xrotation Yrotation Zrotation
														End Site
														{
															OFFSET 0.000000 0.000000 0.000000
														}
													}
												}
											}
										}
										JOINT RightHandRing1
										{
											OFFSET -15.849876 -0.102936 -4.126237
											CHANNELS 3 Xrotation Yrotation Zrotation
											JOINT RightHandRing2
											{
												OFFSET -3.527054 0.000000 0.000000
												CHANNELS 3 Xrotation Yrotation Zrotation
												JOINT RightHandRing3
												{
													OFFSET -2.961098 0.000000 0.000000
													CHANNELS 3 Xrotation Yrotation Zrotation
													JOINT RightHandRing4
													{
														OFFSET -4.927200 0.000000 0.000000
														CHANNELS 3 Xrotation Yrotation Zrotation
														End Site
														{
															OFFSET 0.000000 0.000000 0.000000
														}
													}
												}
											}
										}
										JOINT RightHandPinky1
										{
											OFFSET -12.791786 -0.832077 -6.799222
											CHANNELS 3 Xrotation Yrotation Zrotation
											JOINT RightHandPinky2
											{
												OFFSET -3.327133 0.000000 0.000000
												CHANNELS 3 Xrotation Yrotation Zrotation
												JOINT RightHandPinky3
												{
													OFFSET -3.014900 0.000000 0.000000
													CHANNELS 3 Xrotation Yrotation Zrotation
													JOINT RightHandPinky4
													{
														OFFSET -5.847786 0.000000 0.000000
														CHANNELS 3 Xrotation Yrotation Zrotation
														End Site
														{
															OFFSET 0.000000 0.000000 0.000000
														}
													}
												}
											}
										}
									}
								}
							}
						}
					}
				}
			}
		}
	}
	JOINT LeftUpLeg
	{
		OFFSET 13.026900 -6.336304 -1.092800
		CHANNELS 3 Xrotation Yrotation Zrotation
		JOINT LeftLeg
		{
			OFFSET 0.524474 -46.096886 9.782700
			CHANNELS 3 Xrotation Yrotation Zrotation
			JOINT LeftFoot
			{
				OFFSET -0.524474 -53.427422 -12.948200
				CHANNELS 3 Xrotation Yrotation Zrotation
				JOINT LeftToeBase
				{
					OFFSET 0.192200 -14.009700 16.364100
					CHANNELS 3 Xrotation Yrotation Zrotation
					JOINT LeftToe_End
					{
						OFFSET -1.784700 -0.561700 9.474800
						CHANNELS 3 Xrotation Yrotation Zrotation
						End Site
						{
							OFFSET 0.000000 0.000000 0.000000
						}
					}
				}
			}
		}
	}
	JOINT RightUpLeg
	{
		OFFSET -12.883000 -6.336304 -1.092800
		CHANNELS 3 Xrotation Yrotation Zrotation
		JOINT RightLeg
		{
			OFFSET -0.524587 -46.096825 9.782800
			CHANNELS 3 Xrotation Yrotation Zrotation
			JOINT RightFoot
			{
				OFFSET 0.524587 -53.427383 -12.948300
				CHANNELS 3 Xrotation Yrotation Zrotation
				JOINT RightToeBase
				{
					OFFSET -0.192200 -14.009700 16.364100
					CHANNELS 3 Xrotation Yrotation Zrotation
					JOINT RightToe_End
					{
						OFFSET 1.784700 -0.561700 9.474800
						CHANNELS 3 Xrotation Yrotation Zrotation
						End Site
						{
							OFFSET 0.000000 0.000000 0.000000
						}
					}
				}
			}
		}
	}
}
MOTION
Frames: 5
Frame Time: 0.016667
-4.909858 114.007446 -8.659470 -9.380959 -0.982733 3.745525 7.171669 1.549025 -4.735848 14.244015 3.269502 -3.077380 0.000000 0.000000 0.000000 14.269163 3.169304 -3.056461 34.427063 0.786428 -4.647339 -1.158473 2.164346 -5.573708 -0.000000 -0.000000 0.000000 -1.697384 -21.196982 -25.775452 0.000000 0.000000 0.000000 -1.040200 -44.501783 -31.977908 4.422153 -24.531593 1.305864 -9.189774 -9.383441 -4.673691 -20.843961 2.778263 -4.205203 -15.861892 33.847829 10.250616 0.000002 0.000006 -0.000024 0.000000 0.000001 0.000001 -3.032232 19.342230 -21.628904 6.299698 9.746909 -60.829009 0.000002 0.000003 0.000010 0.000001 0.000003 -0.000002 -13.487431 18.095014 -22.029653 6.757694 12.670218 -69.483685 0.000004 -0.000002 -0.000013 0.000001 -0.000002 0.000001 -15.276637 16.701595 -37.493360 3.110969 12.310337 -81.609525 -0.000006 0.000007 -0.000005 -0.000002 -0.000002 -0.000001 -30.922657 24.752747 -41.174996 6.897624 7.241770 -89.331395 0.000002 -0.000005 -0.000005 0.000000 -0.000002 -0.000000 -1.956285 23.252493 25.557188 0.000000 0.000000 0.000000 -0.642669 20.673895 37.850142 388.848024 40.014366 -373.261177 -9.479954 7.418368 17.742881 -21.511951 -2.863837 5.102382 -16.456436 -31.619592 -10.828987 0.000005 0.000002 -0.000016 -0.000003 -0.000002 0.000002 -1.117340 -20.400091 22.512874 6.671910 -9.934597 63.001009 0.000000 -0.000005 -0.000002 0.000000 -0.000000 0.000000 -13.816731 -17.423239 21.320941 6.561179 -12.925897 68.651092 0.000004 -0.000004 0.000001 0.000000 -0.000001 -0.000001 -14.137746 -15.831728 36.119205 3.239848 -12.615802 81.908305 -0.000001 0.000005 0.000011 0.000002 0.000001 -0.000000 -31.246896 -25.471731 41.789744 6.380841 -7.478734 85.668973 -0.000005 -0.000002 -0.000008 -0.000002 0.000001 0.000001 -7.475065 8.748808 -4.114309 24.295353 -0.387264 -0.274722 -8.077279 3.911756 3.031533 -0.000002 -0.000000 -0.000000 -0.000000 -0.000000 -0.000000 -12.490293 -13.674484 -16.402202 27.836530 0.413397 0.299889 -5.925333 -14.359305 4.203002 -0.000086 0.000007 0.000095 -0.000000 -0.000001 0.000000 
-4.434157 114.413567 -8.513488 -9.888784 -1.294053 3.980286 6.805966 1.615830 -4.908128 13.499546 3.300434 -3.157294 0.000000 0.000000 0.000000 13.525419 3.199131 -3.135812 33.353426 1.110184 -4.334505 -1.596116 2.537176 -5.856433 0.000001 0.000000 0.000001 -1.205553 -20.666494 -24.364065 0.000000 0.000000 0.000000 1.602673 -41.933598 -31.598234 4.490915 -26.563564 0.875681 -9.122656 -9.161223 -3.757674 -20.813311 1.465096 -4.329360 -17.962347 34.591462 10.894308 -0.000001 0.000006 -0.000025 0.000001 0.000000 -0.000000 -2.865782 20.397634 -21.773241 6.720280 9.983957 -64.054901 0.000005 0.000005 0.000008 -0.000001 -0.000003 -0.000001 -14.124286 18.570910 -22.021445 7.166280 13.162449 -72.156085 0.000006 -0.000006 -0.000012 0.000001 -0.000005 0.000002 -15.699009 16.729305 -37.472180 3.380871 13.021839 -85.361211 -0.000000 0.000004 -0.000003 0.000002 -0.000003 -0.000001 -32.764950 25.881127 -41.122397 7.141891 7.587548 -92.296879 0.000001 -0.000002 0.000001 -0.000002 -0.000001 -0.000003 -1.348469 22.309548 23.910459 0.000000 0.000000 0.000000 2.405166 20.579676 39.044831 390.735069 42.386098 -375.654503 -9.510651 7.694568 16.288765 -21.155644 -1.499637 4.801383 -18.479162 -32.518541 -11.171461 0.000005 0.000000 -0.000015 0.000003 -0.000000 -0.000000 -1.414014 -21.180222 23.136499 7.201693 -10.089873 66.392225 -0.000000 -0.000006 -0.000001 0.000000 -0.000000 -0.000001 -13.696615 -18.828234 22.659684 7.302411 -13.300209 72.456129 0.000005 -0.000003 0.000001 0.000000 0.000000 -0.000000 -14.448099 -16.935555 37.866002 3.852938 -13.239551 86.752125 -0.000003 0.000003 0.000009 -0.000000 -0.000001 -0.000002 -32.393521 -27.169724 42.613714 7.302984 -7.722398 91.940459 0.000001 -0.000000 -0.000008 -0.000003 -0.000000 -0.000003 -5.964522 9.196832 -4.704203 22.982081 -0.369312 -0.268026 -7.702271 3.751412 3.299187 -0.000007 -0.000000 -0.000001 -0.000000 -0.000000 -0.000000 -11.500161 -13.666650 -16.835742 26.815968 0.389791 0.291301 -5.391285 -14.059620 4.503642 -0.000109 -0.000004 0.000126 -0.000000 -0.000001 -0.000000 
-3.968034 114.640511 -8.422564 -10.182064 -1.507917 4.184997 6.452760 1.634961 -5.055890 12.785433 3.259336 -3.237265 0.000000 0.000000 0.000000 12.811439 3.157069 -3.215349 32.190989 1.385669 -4.182468 -2.117608 2.779011 -5.803766 -0.000005 -0.000000 0.000000 -0.606954 -19.983607 -22.751681 0.000000 0.000000 0.000000 3.591674 -39.451121 -31.646920 5.236553 -28.036359 0.947473 -9.048448 -8.981128 -2.662401 -20.797711 0.593372 -4.405168 -19.377556 35.076802 11.340715 0.000000 0.000006 -0.000024 0.000002 -0.000000 0.000001 -2.843851 21.049282 -21.555225 6.983297 10.133561 -66.089955 0.000004 0.000004 0.000010 0.000000 0.000005 -0.000000 -14.712808 18.654544 -21.681828 7.427301 13.475983 -73.762211 0.000005 -0.000006 -0.000012 0.000000 -0.000001 0.000001 -16.114201 16.583363 -37.151359 3.571183 13.484258 -87.649489 0.000001 0.000006 -0.000007 0.000002 0.000002 -0.000004 -34.046816 26.463768 -40.933682 7.318350 7.814293 -94.101354 0.000002 -0.000002 -0.000003 0.000001 -0.000001 -0.000001 -0.713644 21.402174 22.136611 0.000000 0.000000 0.000000 4.746090 20.510858 40.324867 391.595673 44.303674 -377.134769 -9.517306 8.185758 14.466665 -20.919488 -0.599288 4.588749 -19.743230 -33.270579 -11.347321 0.000006 0.000001 -0.000016 -0.000003 0.000000 -0.000000 -1.732036 -21.630741 23.353233 7.525117 -10.184745 68.548523 -0.000001 -0.000006 -0.000002 -0.000001 0.000000 0.000000 -13.647363 -19.748128 23.428143 7.815861 -13.530617 74.982138 0.000004 -0.000003 0.000002 -0.000000 0.000000 -0.000001 -14.832528 -17.503017 38.828051 4.283390 -13.641180 89.897891 -0.000002 0.000002 0.000011 -0.000001 -0.000001 -0.000003 -33.250580 -28.094749 42.857914 7.902227 -7.871601 96.037002 0.000000 -0.000001 -0.000003 -0.000000 -0.000001 -0.000001 -5.001593 9.588127 -5.228092 22.147430 -0.359343 -0.263816 -7.480296 3.575844 3.572157 0.000010 0.000003 0.000001 0.000000 -0.000000 -0.000000 -10.970886 -13.623427 -17.284624 26.193905 0.381980 0.287450 -4.997855 -13.843162 4.827086 -0.000123 -0.000003 0.000136 0.000000 -0.000003 -0.000000 
-3.534418 114.726761 -8.345996 -10.273872 -1.672247 4.373348 6.107124 1.643615 -5.199657 12.086296 3.177757 -3.317953 0.000000 0.000000 0.000000 12.112672 3.083688 -3.298396 30.904840 1.645485 -3.990192 -2.591290 2.961596 -5.738696 -0.000000 -0.000001 0.000001 0.051152 -19.230213 -20.982121 0.000000 0.000000 0.000000 4.852669 -36.960496 -32.152357 6.739159 -28.723848 1.369271 -8.972966 -8.751106 -1.470417 -20.780036 0.131067 -4.433533 -20.134385 35.301703 11.597082 -0.000000 0.000006 -0.000024 0.000001 -0.000000 0.000000 -2.943791 21.290195 -21.292077 7.059032 10.202935 -66.897516 0.000003 0.000004 0.000009 -0.000001 0.000002 0.000001 -15.195115 18.667291 -21.193003 7.557107 13.632482 -74.479354 0.000006 -0.000004 -0.000012 -0.000001 -0.000002 0.000000 -16.474341 16.391646 -36.743785 3.655767 13.711812 -88.528001 -0.000004 0.000001 -0.000007 -0.000000 0.000000 -0.000002 -34.882572 26.667372 -40.681648 7.415467 7.943065 -95.048598 0.000003 -0.000002 0.000003 0.000000 -0.000001 -0.000001 -0.076874 20.530169 20.303509 0.000000 0.000000 0.000000 6.411388 20.396591 41.725185 391.669357 45.382403 -377.619822 -9.496808 8.760633 12.468589 -20.787052 -0.131113 4.453344 -20.394069 -33.885453 -11.409673 0.000007 0.000001 -0.000016 -0.000001 -0.000000 0.000001 -1.978508 -21.846034 23.322096 7.606892 -10.233831 69.363501 0.000000 -0.000006 -0.000003 0.000000 -0.000000 0.000000 -13.665517 -20.156375 23.639268 8.028587 -13.635645 76.097917 0.000005 -0.000002 0.000002 0.000001 -0.000000 0.000000 -15.196128 -17.695958 39.083804 4.414979 -13.872908 91.092512 -0.000001 0.000003 0.000010 0.000001 -0.000000 -0.000002 -33.824326 -28.399928 42.754423 8.070490 -7.958738 97.642684 -0.000003 0.000000 -0.000003 -0.000003 -0.000000 -0.000001 -4.491649 9.958465 -5.684650 21.704980 -0.353461 -0.261960 -7.398884 3.401355 3.833708 0.000009 -0.000003 0.000001 0.000000 -0.000000 -0.000000 -10.838697 -13.512812 -17.738317 25.940782 0.363915 0.282087 -4.764980 -13.655156 5.075480 -0.000123 0.000012 0.000146 -0.000000 -0.000001 0.000000 
-3.148354 114.718735 -8.244502 -10.217320 -1.835831 4.555477 5.759440 1.634690 -5.349931 11.386202 3.091535 -3.410621 0.000000 0.000000 0.000000 11.412664 3.001243 -3.392073 29.409435 1.908747 -3.558440 -2.904610 3.168592 -5.699415 -0.000002 0.000000 -0.000001 0.749358 -18.438161 -19.040184 0.000000 0.000000 0.000000 5.216743 -34.576234 -33.163673 8.558940 -28.595871 1.875534 -8.911213 -8.428459 -0.354353 -20.769159 -0.022917 -4.437810 -20.392662 35.279252 11.664899 -0.000000 0.000006 -0.000024 -0.000002 0.000000 0.000000 -3.117349 21.240778 -20.904591 7.043563 10.221486 -66.993897 0.000003 0.000007 0.000007 -0.000001 -0.000003 -0.000001 -15.595605 18.464004 -20.645985 7.606102 13.677450 -74.728048 0.000005 -0.000003 -0.000012 0.000000 -0.000003 0.000000 -16.724138 16.271607 -36.573819 3.663830 13.766239 -88.667166 -0.000003 0.000002 -0.000005 0.000001 -0.000002 0.000004 -35.356464 26.544649 -40.435089 7.495750 7.989854 -95.563396 0.000001 -0.000003 0.000006 0.000000 0.000001 -0.000002 0.530487 19.695713 18.487720 0.000000 0.000000 0.000000 7.345205 20.182922 43.228629 390.746407 45.758869 -376.939890 -9.469263 9.415239 10.628588 -20.740305 0.021578 4.398347 -20.576944 -34.422818 -11.464963 0.000005 0.000002 -0.000016 -0.000003 -0.000000 -0.000000 -2.049616 -21.916591 23.307087 7.546856 -10.250792 69.264231 -0.000000 -0.000005 0.000000 -0.000000 -0.000000 0.000001 -13.762473 -20.183728 23.496749 8.029377 -13.664431 76.234009 0.000005 -0.000004 0.000002 -0.000000 -0.000000 0.000000 -15.370180 -17.657636 38.844218 4.352165 -13.946579 91.070546 -0.000002 0.000005 0.000006 0.000001 0.000000 -0.000003 -34.135752 -28.333933 42.398802 7.997887 -8.013696 97.664848 -0.000001 0.000000 -0.000002 -0.000002 -0.000000 0.000000 -4.278994 10.321148 -6.085900 21.534164 -0.352034 -0.261752 -7.441089 3.251345 4.069630 0.000000 0.000002 -0.000001 -0.000000 0.000000 -0.000000 -10.967398 -13.324508 -18.177736 25.933634 0.350457 0.278584 -4.653296 -13.519380 5.312300 -0.000135 0.000002 0.000159 -0.000000 0.000000 -0.000000 
